# File created by Blade
# Date/Time:  Wed Jan 21 15:23:43 2015
# Frame Rate: 120.000 fps
#------------------------------------------------------
:FULLY-SPECIFIED
:DEGREES
664
root 9.773217 27.243419 -17.106948 -161.654015 6.028315 -192.492044
Spine 6.334718 4.263335 -13.596673
Head -16.610441 -3.488375 0.111029
LeftShoulder -5.170595 -26.378962 -2.182709
LeftArm -15.097806 45.178179 -78.484859
LeftForeArm 35.105751 -0.000000 59.681878
LeftHand 0.191846 -0.000000 -4.881516
LeftHandThumb1 -26.253704 0.000000 33.147579
RightShoulder -1.636957 -10.021543 2.908531
RightArm 17.729796 -30.306339 60.943417
RightForeArm -30.854290 -0.000000 32.189408
RightHand 3.669677 0.000000 6.805012
RightHandThumb1 -24.326973 -0.000000 -32.862282
LeftUpLeg -60.098753 12.599251 -22.540411
LeftLeg 76.993041 -0.000000 -0.000000
LeftFoot -56.530551 19.390987 -16.562456
LeftToeBase 25.474147 -0.000000 -0.000000
RightUpLeg -25.760969 -40.718163 -37.968914
RightLeg -3.319845 -0.000000 0.000000
RightFoot 6.217638 -21.393664 18.891214
RightToeBase 32.791013 -0.000000 -0.000000
665
root 9.760941 27.240134 -17.125870 -161.695179 6.024710 -192.494900
Spine 6.260248 4.230905 -13.611804
Head -16.611113 -3.426453 0.047193
LeftShoulder -5.161948 -26.432606 -2.189427
LeftArm -15.142102 45.335059 -78.523970
LeftForeArm 34.833713 -0.000000 59.476960
LeftHand 0.338337 -0.000000 -4.812914
LeftHandThumb1 -26.253704 0.000000 33.147579
RightShoulder -1.637188 -9.995007 2.922866
RightArm 17.634867 -30.322118 61.009393
RightForeArm -30.827817 0.000000 32.071145
RightHand 3.751485 -0.000000 6.590526
RightHandThumb1 -24.326973 -0.000000 -32.862282
LeftUpLeg -60.014621 12.507535 -22.517607
LeftLeg 77.008551 -0.000000 -0.000000
LeftFoot -56.576121 19.479606 -16.616189
LeftToeBase 25.374333 -0.000000 -0.000000
RightUpLeg -25.684335 -40.730066 -38.017845
RightLeg -3.321907 -0.000000 0.000000
RightFoot 6.240297 -21.337705 18.813061
RightToeBase 32.809733 -0.000000 -0.000000
666
root 9.751025 27.239008 -17.142983 -161.727926 6.008744 -192.519705
Spine 6.164845 4.186407 -13.671625
Head -16.627490 -3.408277 0.039766
LeftShoulder -5.144293 -26.397209 -2.167070
LeftArm -15.072866 45.494395 -78.518036
LeftForeArm 34.516917 -0.000000 59.250977
LeftHand 0.403715 -0.000000 -4.686465
LeftHandThumb1 -26.253704 0.000000 33.147579
RightShoulder -1.629239 -9.996281 2.951916
RightArm 17.575853 -30.317774 61.084683
RightForeArm -30.845299 0.000000 31.905831
RightHand 3.810710 -0.000000 6.474963
RightHandThumb1 -24.326973 -0.000000 -32.862282
LeftUpLeg -59.927803 12.413347 -22.513922
LeftLeg 76.997638 -0.000000 -0.000000
LeftFoot -56.632910 19.554326 -16.660672
LeftToeBase 25.374916 -0.000000 -0.000000
RightUpLeg -25.622503 -40.794353 -38.053717
RightLeg -3.333880 -0.000000 0.000000
RightFoot 6.261283 -21.298266 18.766204
RightToeBase 32.777489 -0.000000 -0.000000
667
root 9.743079 27.239378 -17.160308 -161.752189 5.973856 -192.521594
Spine 6.066960 4.130976 -13.690200
Head -16.632401 -3.347655 0.012433
LeftShoulder -5.113926 -26.460160 -2.161785
LeftArm -15.162850 45.633795 -78.618900
LeftForeArm 34.314890 -0.000000 59.061122
LeftHand 0.449250 -0.000000 -4.622400
LeftHandThumb1 -26.253704 0.000000 33.147579
RightShoulder -1.670696 -9.987941 2.986872
RightArm 17.560530 -30.361073 61.120031
RightForeArm -30.894994 0.000000 31.724711
RightHand 3.896746 -0.000000 6.455830
RightHandThumb1 -24.326973 -0.000000 -32.862282
LeftUpLeg -59.845617 12.298723 -22.474876
LeftLeg 76.990542 -0.000000 -0.000000
LeftFoot -56.691779 19.617734 -16.734818
LeftToeBase 25.382593 -0.000000 -0.000000
RightUpLeg -25.562179 -40.884289 -38.046477
RightLeg -3.351383 -0.000000 0.000000
RightFoot 6.294911 -21.243639 18.696572
RightToeBase 32.765033 -0.000000 -0.000000
668
root 9.736072 27.241013 -17.177515 -161.791555 5.957298 -192.530964
Spine 5.983934 4.105885 -13.730377
Head -16.650277 -3.297071 0.012977
LeftShoulder -5.116146 -26.438210 -2.166858
LeftArm -15.093529 45.850988 -78.591477
LeftForeArm 34.190201 0.000000 58.922162
LeftHand 0.409217 -0.000000 -4.596764
LeftHandThumb1 -26.253704 0.000000 33.147579
RightShoulder -1.703748 -9.951021 3.010896
RightArm 17.515457 -30.418581 61.187405
RightForeArm -30.829655 0.000000 31.538172
RightHand 3.965835 -0.000000 6.345036
RightHandThumb1 -24.326973 -0.000000 -32.862282
LeftUpLeg -59.744010 12.201690 -22.443477
LeftLeg 76.971706 -0.000000 -0.000000
LeftFoot -56.722581 19.707963 -16.769979
LeftToeBase 25.299523 -0.000000 -0.000000
RightUpLeg -25.513107 -40.967682 -38.040432
RightLeg -3.363603 -0.000000 0.000000
RightFoot 6.346468 -21.193428 18.607020
RightToeBase 32.746456 -0.000000 -0.000000
